<mxfile host="app.diagrams.net" modified="2024-07-18T17:26:16.246Z" agent="Mozilla/5.0 (Windows NT 10.0; Win64; x64) AppleWebKit/537.36 (KHTML, like Gecko) Chrome/126.0.0.0 Safari/537.36" etag="Eb2kDvNc3NvQkur_Uv-O" version="24.5.1" type="device">
  <diagram name="PÃ¡gina-1" id="becsXgrMiFanZUQi8Y07">
    <mxGraphModel dx="2220" dy="823" grid="1" gridSize="10" guides="1" tooltips="1" connect="1" arrows="1" fold="1" page="1" pageScale="1" pageWidth="827" pageHeight="1169" math="0" shadow="0">
      <root>
        <mxCell id="0" />
        <mxCell id="1" parent="0" />
        <mxCell id="HYgIbVTwH51KsEUurRWr-1" value="PERSONA" style="rounded=0;whiteSpace=wrap;html=1;" vertex="1" parent="1">
          <mxGeometry x="520" y="135" width="120" height="60" as="geometry" />
        </mxCell>
        <mxCell id="HYgIbVTwH51KsEUurRWr-55" style="rounded=0;orthogonalLoop=1;jettySize=auto;html=1;" edge="1" parent="1" source="HYgIbVTwH51KsEUurRWr-2">
          <mxGeometry relative="1" as="geometry">
            <mxPoint x="650" y="140" as="targetPoint" />
          </mxGeometry>
        </mxCell>
        <mxCell id="HYgIbVTwH51KsEUurRWr-2" value="NOMBRE" style="ellipse;whiteSpace=wrap;html=1;" vertex="1" parent="1">
          <mxGeometry x="670" y="40" width="70" height="30" as="geometry" />
        </mxCell>
        <mxCell id="HYgIbVTwH51KsEUurRWr-54" style="rounded=0;orthogonalLoop=1;jettySize=auto;html=1;entryX=0.5;entryY=0;entryDx=0;entryDy=0;" edge="1" parent="1" source="HYgIbVTwH51KsEUurRWr-3" target="HYgIbVTwH51KsEUurRWr-1">
          <mxGeometry relative="1" as="geometry" />
        </mxCell>
        <mxCell id="HYgIbVTwH51KsEUurRWr-3" value="DIRECCION" style="ellipse;whiteSpace=wrap;html=1;" vertex="1" parent="1">
          <mxGeometry x="580" y="20" width="70" height="40" as="geometry" />
        </mxCell>
        <mxCell id="HYgIbVTwH51KsEUurRWr-53" style="rounded=0;orthogonalLoop=1;jettySize=auto;html=1;entryX=0;entryY=0;entryDx=0;entryDy=0;" edge="1" parent="1" source="HYgIbVTwH51KsEUurRWr-4" target="HYgIbVTwH51KsEUurRWr-1">
          <mxGeometry relative="1" as="geometry" />
        </mxCell>
        <mxCell id="HYgIbVTwH51KsEUurRWr-4" value="TELEFONO" style="ellipse;whiteSpace=wrap;html=1;" vertex="1" parent="1">
          <mxGeometry x="495" y="15" width="70" height="50" as="geometry" />
        </mxCell>
        <mxCell id="HYgIbVTwH51KsEUurRWr-52" style="rounded=0;orthogonalLoop=1;jettySize=auto;html=1;entryX=0;entryY=0.5;entryDx=0;entryDy=0;" edge="1" parent="1" source="HYgIbVTwH51KsEUurRWr-5" target="HYgIbVTwH51KsEUurRWr-1">
          <mxGeometry relative="1" as="geometry" />
        </mxCell>
        <mxCell id="HYgIbVTwH51KsEUurRWr-5" value="EMAIL" style="ellipse;whiteSpace=wrap;html=1;" vertex="1" parent="1">
          <mxGeometry x="414" y="25" width="60" height="40" as="geometry" />
        </mxCell>
        <mxCell id="HYgIbVTwH51KsEUurRWr-92" style="edgeStyle=orthogonalEdgeStyle;rounded=0;orthogonalLoop=1;jettySize=auto;html=1;entryX=0;entryY=0.5;entryDx=0;entryDy=0;" edge="1" parent="1" source="HYgIbVTwH51KsEUurRWr-10" target="HYgIbVTwH51KsEUurRWr-57">
          <mxGeometry relative="1" as="geometry">
            <Array as="points">
              <mxPoint x="210" y="310" />
            </Array>
          </mxGeometry>
        </mxCell>
        <mxCell id="HYgIbVTwH51KsEUurRWr-10" value="PROFESOR" style="rounded=1;whiteSpace=wrap;html=1;" vertex="1" parent="1">
          <mxGeometry x="130" y="460" width="120" height="60" as="geometry" />
        </mxCell>
        <mxCell id="HYgIbVTwH51KsEUurRWr-12" value="DEPARTAMENTO" style="ellipse;whiteSpace=wrap;html=1;" vertex="1" parent="1">
          <mxGeometry x="40" y="390" width="80" height="40" as="geometry" />
        </mxCell>
        <mxCell id="HYgIbVTwH51KsEUurRWr-63" style="rounded=0;orthogonalLoop=1;jettySize=auto;html=1;entryX=0;entryY=0.5;entryDx=0;entryDy=0;" edge="1" parent="1" source="HYgIbVTwH51KsEUurRWr-14" target="HYgIbVTwH51KsEUurRWr-10">
          <mxGeometry relative="1" as="geometry" />
        </mxCell>
        <mxCell id="HYgIbVTwH51KsEUurRWr-14" value="DEDICACION" style="ellipse;whiteSpace=wrap;html=1;" vertex="1" parent="1">
          <mxGeometry y="470" width="76" height="50" as="geometry" />
        </mxCell>
        <mxCell id="HYgIbVTwH51KsEUurRWr-16" value="ALUMNO" style="rounded=0;whiteSpace=wrap;html=1;" vertex="1" parent="1">
          <mxGeometry x="495" y="460" width="120" height="60" as="geometry" />
        </mxCell>
        <mxCell id="HYgIbVTwH51KsEUurRWr-20" style="rounded=0;orthogonalLoop=1;jettySize=auto;html=1;entryX=0.5;entryY=0;entryDx=0;entryDy=0;" edge="1" parent="1" source="HYgIbVTwH51KsEUurRWr-18" target="HYgIbVTwH51KsEUurRWr-16">
          <mxGeometry relative="1" as="geometry" />
        </mxCell>
        <mxCell id="HYgIbVTwH51KsEUurRWr-18" value="NUM_EXPEDIENTE" style="ellipse;whiteSpace=wrap;html=1;" vertex="1" parent="1">
          <mxGeometry x="404" y="390" width="130" height="50" as="geometry" />
        </mxCell>
        <mxCell id="HYgIbVTwH51KsEUurRWr-19" value="TITULACION" style="ellipse;whiteSpace=wrap;html=1;" vertex="1" parent="1">
          <mxGeometry x="615" y="385" width="80" height="50" as="geometry" />
        </mxCell>
        <mxCell id="HYgIbVTwH51KsEUurRWr-21" style="rounded=0;orthogonalLoop=1;jettySize=auto;html=1;entryX=0.683;entryY=-0.017;entryDx=0;entryDy=0;entryPerimeter=0;" edge="1" parent="1" source="HYgIbVTwH51KsEUurRWr-19" target="HYgIbVTwH51KsEUurRWr-16">
          <mxGeometry relative="1" as="geometry" />
        </mxCell>
        <mxCell id="HYgIbVTwH51KsEUurRWr-91" style="edgeStyle=orthogonalEdgeStyle;rounded=0;orthogonalLoop=1;jettySize=auto;html=1;entryX=1;entryY=0.5;entryDx=0;entryDy=0;" edge="1" parent="1" source="HYgIbVTwH51KsEUurRWr-22" target="HYgIbVTwH51KsEUurRWr-57">
          <mxGeometry relative="1" as="geometry">
            <Array as="points">
              <mxPoint x="830" y="310" />
            </Array>
          </mxGeometry>
        </mxCell>
        <mxCell id="HYgIbVTwH51KsEUurRWr-22" value="PERSONAL" style="rounded=0;whiteSpace=wrap;html=1;" vertex="1" parent="1">
          <mxGeometry x="760" y="470" width="120" height="60" as="geometry" />
        </mxCell>
        <mxCell id="HYgIbVTwH51KsEUurRWr-78" style="rounded=0;orthogonalLoop=1;jettySize=auto;html=1;entryX=1;entryY=0.75;entryDx=0;entryDy=0;" edge="1" parent="1" source="HYgIbVTwH51KsEUurRWr-23" target="HYgIbVTwH51KsEUurRWr-22">
          <mxGeometry relative="1" as="geometry" />
        </mxCell>
        <mxCell id="HYgIbVTwH51KsEUurRWr-23" value="UND_ADMINISTRATIVA" style="ellipse;whiteSpace=wrap;html=1;" vertex="1" parent="1">
          <mxGeometry x="960" y="490" width="130" height="70" as="geometry" />
        </mxCell>
        <mxCell id="HYgIbVTwH51KsEUurRWr-69" style="rounded=0;orthogonalLoop=1;jettySize=auto;html=1;entryX=1;entryY=0.25;entryDx=0;entryDy=0;" edge="1" parent="1" source="HYgIbVTwH51KsEUurRWr-25" target="HYgIbVTwH51KsEUurRWr-22">
          <mxGeometry relative="1" as="geometry" />
        </mxCell>
        <mxCell id="HYgIbVTwH51KsEUurRWr-25" value="CAT_PROFECIONAL" style="ellipse;whiteSpace=wrap;html=1;" vertex="1" parent="1">
          <mxGeometry x="970" y="380" width="120" height="80" as="geometry" />
        </mxCell>
        <mxCell id="HYgIbVTwH51KsEUurRWr-77" style="rounded=0;orthogonalLoop=1;jettySize=auto;html=1;entryX=0;entryY=1;entryDx=0;entryDy=0;" edge="1" parent="1" source="HYgIbVTwH51KsEUurRWr-26" target="HYgIbVTwH51KsEUurRWr-75">
          <mxGeometry relative="1" as="geometry" />
        </mxCell>
        <mxCell id="HYgIbVTwH51KsEUurRWr-26" value="CENTRO" style="rounded=0;whiteSpace=wrap;html=1;" vertex="1" parent="1">
          <mxGeometry x="260" y="740" width="120" height="60" as="geometry" />
        </mxCell>
        <mxCell id="HYgIbVTwH51KsEUurRWr-74" style="rounded=0;orthogonalLoop=1;jettySize=auto;html=1;" edge="1" parent="1" source="HYgIbVTwH51KsEUurRWr-27" target="HYgIbVTwH51KsEUurRWr-26">
          <mxGeometry relative="1" as="geometry" />
        </mxCell>
        <mxCell id="HYgIbVTwH51KsEUurRWr-27" value="NOMBRE" style="ellipse;whiteSpace=wrap;html=1;" vertex="1" parent="1">
          <mxGeometry x="270" y="840" width="100" height="35" as="geometry" />
        </mxCell>
        <mxCell id="HYgIbVTwH51KsEUurRWr-62" style="edgeStyle=orthogonalEdgeStyle;rounded=0;orthogonalLoop=1;jettySize=auto;html=1;entryX=0.5;entryY=1;entryDx=0;entryDy=0;" edge="1" parent="1" source="HYgIbVTwH51KsEUurRWr-57" target="HYgIbVTwH51KsEUurRWr-1">
          <mxGeometry relative="1" as="geometry" />
        </mxCell>
        <mxCell id="HYgIbVTwH51KsEUurRWr-57" value="ES" style="rhombus;whiteSpace=wrap;html=1;" vertex="1" parent="1">
          <mxGeometry x="530" y="270" width="84" height="80" as="geometry" />
        </mxCell>
        <mxCell id="HYgIbVTwH51KsEUurRWr-64" style="rounded=0;orthogonalLoop=1;jettySize=auto;html=1;entryX=0.382;entryY=0.05;entryDx=0;entryDy=0;entryPerimeter=0;" edge="1" parent="1" source="HYgIbVTwH51KsEUurRWr-12" target="HYgIbVTwH51KsEUurRWr-10">
          <mxGeometry relative="1" as="geometry" />
        </mxCell>
        <mxCell id="HYgIbVTwH51KsEUurRWr-66" style="rounded=0;orthogonalLoop=1;jettySize=auto;html=1;entryX=0.398;entryY=1.02;entryDx=0;entryDy=0;entryPerimeter=0;" edge="1" parent="1" source="HYgIbVTwH51KsEUurRWr-16" target="HYgIbVTwH51KsEUurRWr-57">
          <mxGeometry relative="1" as="geometry" />
        </mxCell>
        <mxCell id="HYgIbVTwH51KsEUurRWr-72" style="rounded=0;orthogonalLoop=1;jettySize=auto;html=1;entryX=0.75;entryY=1;entryDx=0;entryDy=0;" edge="1" parent="1" source="HYgIbVTwH51KsEUurRWr-71" target="HYgIbVTwH51KsEUurRWr-10">
          <mxGeometry relative="1" as="geometry" />
        </mxCell>
        <mxCell id="HYgIbVTwH51KsEUurRWr-73" style="rounded=0;orthogonalLoop=1;jettySize=auto;html=1;entryX=0.25;entryY=0;entryDx=0;entryDy=0;" edge="1" parent="1" source="HYgIbVTwH51KsEUurRWr-71" target="HYgIbVTwH51KsEUurRWr-26">
          <mxGeometry relative="1" as="geometry" />
        </mxCell>
        <mxCell id="HYgIbVTwH51KsEUurRWr-71" value="IMPARTE" style="rhombus;whiteSpace=wrap;html=1;" vertex="1" parent="1">
          <mxGeometry x="160" y="610" width="110" height="80" as="geometry" />
        </mxCell>
        <mxCell id="HYgIbVTwH51KsEUurRWr-76" style="rounded=0;orthogonalLoop=1;jettySize=auto;html=1;" edge="1" parent="1" source="HYgIbVTwH51KsEUurRWr-75" target="HYgIbVTwH51KsEUurRWr-16">
          <mxGeometry relative="1" as="geometry" />
        </mxCell>
        <mxCell id="HYgIbVTwH51KsEUurRWr-75" value="MATRICULA" style="rhombus;whiteSpace=wrap;html=1;" vertex="1" parent="1">
          <mxGeometry x="495" y="625" width="110" height="80" as="geometry" />
        </mxCell>
        <mxCell id="HYgIbVTwH51KsEUurRWr-79" value="1" style="text;html=1;align=center;verticalAlign=middle;whiteSpace=wrap;rounded=0;" vertex="1" parent="1">
          <mxGeometry x="565" y="250" width="60" height="30" as="geometry" />
        </mxCell>
        <mxCell id="HYgIbVTwH51KsEUurRWr-80" value="1" style="text;html=1;align=center;verticalAlign=middle;whiteSpace=wrap;rounded=0;" vertex="1" parent="1">
          <mxGeometry x="554" y="360" width="60" height="30" as="geometry" />
        </mxCell>
        <mxCell id="HYgIbVTwH51KsEUurRWr-81" value="1" style="text;html=1;align=center;verticalAlign=middle;whiteSpace=wrap;rounded=0;" vertex="1" parent="1">
          <mxGeometry x="300" y="270" width="60" height="30" as="geometry" />
        </mxCell>
        <mxCell id="HYgIbVTwH51KsEUurRWr-82" value="1" style="text;html=1;align=center;verticalAlign=middle;whiteSpace=wrap;rounded=0;" vertex="1" parent="1">
          <mxGeometry x="240" y="380" width="60" height="30" as="geometry" />
        </mxCell>
        <mxCell id="HYgIbVTwH51KsEUurRWr-84" value="1" style="text;html=1;align=center;verticalAlign=middle;whiteSpace=wrap;rounded=0;" vertex="1" parent="1">
          <mxGeometry x="767" y="280" width="60" height="30" as="geometry" />
        </mxCell>
        <mxCell id="HYgIbVTwH51KsEUurRWr-85" value="1" style="text;html=1;align=center;verticalAlign=middle;whiteSpace=wrap;rounded=0;" vertex="1" parent="1">
          <mxGeometry x="820" y="390" width="60" height="30" as="geometry" />
        </mxCell>
        <mxCell id="HYgIbVTwH51KsEUurRWr-86" value="N" style="text;html=1;align=center;verticalAlign=middle;whiteSpace=wrap;rounded=0;" vertex="1" parent="1">
          <mxGeometry x="200" y="700" width="60" height="30" as="geometry" />
        </mxCell>
        <mxCell id="HYgIbVTwH51KsEUurRWr-87" value="N" style="text;html=1;align=center;verticalAlign=middle;whiteSpace=wrap;rounded=0;" vertex="1" parent="1">
          <mxGeometry x="170" y="580" width="60" height="30" as="geometry" />
        </mxCell>
        <mxCell id="HYgIbVTwH51KsEUurRWr-88" value="N" style="text;html=1;align=center;verticalAlign=middle;whiteSpace=wrap;rounded=0;" vertex="1" parent="1">
          <mxGeometry x="494" y="600" width="60" height="30" as="geometry" />
        </mxCell>
        <mxCell id="HYgIbVTwH51KsEUurRWr-90" value="1" style="text;html=1;align=center;verticalAlign=middle;whiteSpace=wrap;rounded=0;" vertex="1" parent="1">
          <mxGeometry x="494" y="700" width="60" height="30" as="geometry" />
        </mxCell>
      </root>
    </mxGraphModel>
  </diagram>
</mxfile>
